# xmcd CD database file
#
# Track frame offsets:
#	150
#	17449
#	42897
#	60293
#	77511
#	95935
#	117867
#	135768
#
# Disc length: 2004 seconds
#
# Revision: 0
# Processed by: cddbd v1.5PL3 Copyright (c) Steve Scherf et al.
# Submitted via: CDex 1.50beta8
#
DISCID=5307d208
DTITLE=Alive! - City Life
DYEAR=1982
DGENRE=Jazz
TTITLE0=City Life
TTITLE1=Diamonds Are Where You Find Them
TTITLE2=Happy Ending
TTITLE3=Afreaka
TTITLE4=Skindo Le Le
TTITLE5=Anouman - Lazy Afternoon
TTITLE6=What Is Life
TTITLE7=Four
EXTD=YEAR: 1982
EXTT0=
EXTT1=
EXTT2=
EXTT3=
EXTT4=
EXTT5=
EXTT6=
EXTT7=
PLAYORDER=
